<svg xmlns="http://www.w3.org/2000/svg" version="1.1" xmlns:xlink="http://www.w3.org/1999/xlink" xmlns:svgjs="http://svgjs.dev/svgjs" width="2000" height="343" viewBox="0 0 2000 343"><g transform="matrix(1,0,0,1,-1.2121212121212466,-0.9252522227909878)"><svg viewBox="0 0 396 68" data-background-color="#f9f9f9" preserveAspectRatio="xMidYMid meet" height="343" width="2000" xmlns="http://www.w3.org/2000/svg" xmlns:xlink="http://www.w3.org/1999/xlink"><g id="tight-bounds" transform="matrix(1,0,0,1,0.2400000000000091,0.1834319275504015)"><svg viewBox="0 0 395.52 67.6331361448992" height="67.6331361448992" width="395.52"><g><svg viewBox="0 0 463.7074826799271 79.293060546875" height="67.6331361448992" width="395.52"><g><svg viewBox="0 0 463.7074826799271 79.293060546875" height="79.293060546875" width="463.7074826799271"><g id="textblocktransform"><svg viewBox="0 0 463.7074826799271 79.293060546875" height="79.293060546875" width="463.7074826799271" id="textblock"><g><svg viewBox="0 0 463.7074826799271 79.293060546875" height="79.293060546875" width="463.7074826799271"><g><svg><g></g><g></g></svg></g><g><svg><g><svg></svg></g><g></g></svg></g><g id="text-0"><svg viewBox="0 0 463.7074826799271 79.293060546875" height="79.293060546875" width="463.7074826799271"><g transform="matrix(1,0,0,1,0,11.178434778091756)"><svg width="164.404296875" viewBox="2.83 -37.55 164.39999999999998 45.8" height="45.80078125" data-palette-color="#030303"><path d="M32.08-17.5L32.08-8.91Q32.08-7.28 31.67-5.97 31.25-4.66 30.57-3.67 29.88-2.69 28.98-1.99 28.08-1.29 27.09-0.85 26.1-0.42 25.1-0.21 24.1 0 23.19 0L23.19 0 11.74 0 11.74-6.35 23.19-6.35Q24.46-6.35 25.1-7.01 25.73-7.67 25.73-8.91L25.73-8.91 25.73-17.46Q25.73-18.77 25.09-19.41 24.44-20.04 23.19-20.04L23.19-20.04 11.79-20.04Q10.5-20.04 9.84-19.4 9.18-18.75 9.18-17.5L9.18-17.5 9.18 8.25 2.83 8.25 2.83-17.5Q2.83-19.14 3.25-20.43 3.66-21.73 4.36-22.72 5.05-23.71 5.96-24.4 6.86-25.1 7.85-25.54 8.84-25.98 9.85-26.18 10.86-26.39 11.74-26.39L11.74-26.39 23.19-26.39Q24.83-26.39 26.12-25.98 27.42-25.56 28.41-24.88 29.39-24.19 30.09-23.29 30.79-22.39 31.23-21.4 31.67-20.41 31.87-19.41 32.08-18.41 32.08-17.5L32.08-17.5ZM64.74-17.65L64.74-8.74Q64.74-7.42 64.28-5.9 63.82-4.37 62.78-3.06 61.74-1.76 60.07-0.88 58.4 0 56 0L56 0 44.55 0Q43.23 0 41.71-0.46 40.18-0.93 38.88-1.97 37.57-3 36.69-4.68 35.81-6.35 35.81-8.74L35.81-8.74Q35.81-10.06 36.28-11.6 36.74-13.13 37.78-14.44 38.82-15.75 40.49-16.63 42.16-17.5 44.55-17.5L44.55-17.5 56-17.5 56-11.45 44.55-11.45Q43.26-11.45 42.55-10.66 41.84-9.86 41.84-8.69L41.84-8.69Q41.84-7.45 42.66-6.75 43.48-6.05 44.6-6.05L44.6-6.05 56-6.05Q57.3-6.05 58.01-6.84 58.71-7.62 58.71-8.79L58.71-8.79 58.71-17.65Q58.71-18.9 57.94-19.63 57.18-20.36 56-20.36L56-20.36 42.06-20.36 42.06-26.39 56-26.39Q57.32-26.39 58.85-25.93 60.37-25.46 61.68-24.43 62.99-23.39 63.86-21.72 64.74-20.04 64.74-17.65L64.74-17.65ZM99.41-14.65L99.41 0 93.06 0 93.06-14.65Q93.06-15.89 92.63-16.88 92.21-17.87 91.47-18.58 90.74-19.29 89.75-19.67 88.76-20.04 87.62-20.04L87.62-20.04 76.51-20.04 76.51 0 70.16 0 70.16-23.24Q70.16-23.9 70.41-24.48 70.65-25.05 71.09-25.48 71.53-25.9 72.11-26.15 72.7-26.39 73.36-26.39L73.36-26.39 87.67-26.39Q88.86-26.39 90.19-26.12 91.52-25.85 92.83-25.26 94.14-24.66 95.32-23.74 96.5-22.83 97.42-21.52 98.33-20.21 98.87-18.51 99.41-16.8 99.41-14.65L99.41-14.65ZM133.93-37.55L133.93-8.91Q133.93-7.28 133.51-5.97 133.1-4.66 132.41-3.67 131.73-2.69 130.83-1.99 129.92-1.29 128.94-0.85 127.95-0.42 126.93-0.21 125.92 0 125.02 0L125.02 0 113.57 0Q111.93 0 110.64-0.42 109.34-0.83 108.35-1.53 107.37-2.22 106.67-3.13 105.97-4.03 105.53-5.02 105.1-6.01 104.89-7.02 104.68-8.03 104.68-8.91L104.68-8.91 104.68-17.5Q104.68-19.95 105.57-21.64 106.46-23.34 107.79-24.4 109.12-25.46 110.69-25.93 112.25-26.39 113.57-26.39L113.57-26.39 125.02-26.39 125.02-20.04 113.62-20.04Q112.35-20.04 111.69-19.4 111.03-18.75 111.03-17.5L111.03-17.5 111.03-8.96Q111.03-7.67 111.67-7.01 112.32-6.35 113.57-6.35L113.57-6.35 125.02-6.35Q126.31-6.35 126.95-7.01 127.58-7.67 127.58-8.91L127.58-8.91 127.58-37.55 133.93-37.55ZM167.23-17.65L167.23-8.74Q167.23-7.42 166.76-5.9 166.3-4.37 165.26-3.06 164.22-1.76 162.55-0.88 160.88 0 158.49 0L158.49 0 147.04 0Q145.72 0 144.19-0.46 142.67-0.93 141.36-1.97 140.05-3 139.17-4.68 138.3-6.35 138.3-8.74L138.3-8.74Q138.3-10.06 138.76-11.6 139.22-13.13 140.26-14.44 141.3-15.75 142.97-16.63 144.64-17.5 147.04-17.5L147.04-17.5 158.49-17.5 158.49-11.45 147.04-11.45Q145.74-11.45 145.03-10.66 144.33-9.86 144.33-8.69L144.33-8.69Q144.33-7.45 145.14-6.75 145.96-6.05 147.08-6.05L147.08-6.05 158.49-6.05Q159.78-6.05 160.49-6.84 161.2-7.62 161.2-8.79L161.2-8.79 161.2-17.65Q161.2-18.9 160.43-19.63 159.66-20.36 158.49-20.36L158.49-20.36 144.55-20.36 144.55-26.39 158.49-26.39Q159.8-26.39 161.33-25.93 162.86-25.46 164.16-24.43 165.47-23.39 166.35-21.72 167.23-20.04 167.23-17.65L167.23-17.65Z" opacity="1" transform="matrix(1,0,0,1,0,0)" fill="#030303" class="undefined-yy-0"></path></svg></g><g><svg xmlns="http://www.w3.org/2000/svg" xmlns:xlink="http://www.w3.org/1999/xlink" version="1.1" x="181.9001953125" y="0" viewBox="2.0006381752066553 9 96.01890231664763 80.89200000000001" enable-background="new 0 0 100 100" xml:space="preserve" height="79.293060546875" width="94.12095924242713" class="icon-cg-0" data-fill-palette-color="accent" id="cg-0"><g fill="#030303" data-fill-palette-color="accent"><g fill="#030303" data-fill-palette-color="accent"><path display="none" fill="none" d="M42.728 56.506c-0.121-0.646-0.202-1.074-0.281-1.34-0.114-0.387-0.381-0.963-0.75-1.764-1.669-3.617-5.578-12.086-4.402-23.895 0.13-1.312 1.782-5.51 7.776-9.143l-0.265-0.505c-1.965 0.886-4.024 1.744-6.203 2.652-8.759 3.652-18.687 7.791-24.577 14.868-4.745 5.7-8.184 12.479-9.945 19.606-1.511 6.111-1.77 12.443-0.731 17.828 1.028 5.332 4.49 10.846 8.502 10.846 0.303 0 0.609-0.031 0.909-0.094l0.343-0.072-0.141-0.322c-1.073-2.447-1.822-5.324-2.096-6.637-0.694-3.33-0.812-10.422-0.229-13.797 1.14-6.602 3.263-9.941 12.826-12.291 0.201-0.049 0.425-0.074 0.668-0.074 2.5 0 6.551 2.658 8.063 4.451 1.831 2.172 3.133 8.24 3.423 11.008 0.754 7.184 2.83 11.547 2.851 11.592l0.121 0.248 0.253-0.113c0.034-0.014 3.356-1.506 4.776-1.506 0.077 0 0.146 0.006 0.206 0.016 0.4 0.063 0.96 0.531 1.455 0.945 0.21 0.176 0.429 0.359 0.638 0.514l0.08 0.061 0.1-0.004c0.86-0.027 2.043-0.344 3.188-0.648 0.213-0.059 0.424-0.113 0.629-0.168l0.333-0.086L50.1 78.369C44.692 66.986 43.316 59.643 42.728 56.506zM46.089 79.299c-0.726-0.539-1.556-1.408-2.219-1.514-1.324-0.207-5.144 1.514-5.144 1.514s-2.066-4.279-2.823-11.496c-0.305-2.9-1.608-8.934-3.489-11.162-1.695-2.01-6.463-5.098-9.017-4.471-9.426 2.316-11.834 5.547-13.039 12.52-0.588 3.404-0.474 10.521 0.231 13.904 0.31 1.482 1.082 4.336 2.114 6.693-4.247 0.887-8.018-5.061-9.072-10.525-1.925-9.979 0.326-24.839 10.614-37.199 7.265-8.728 20.596-12.902 30.679-17.442-6.181 3.747-7.784 8.072-7.913 9.359-1.429 14.359 4.532 23.644 5.162 25.767 0.443 1.494 1.141 9.506 7.668 23.246C48.575 78.822 47.076 79.268 46.089 79.299z"></path><path display="none" fill="none" d="M91.746 36.77c-0.146-0.562-0.623-1.327-1.176-2.213-0.815-1.31-1.825-2.933-1.802-4.082 0.145-0.214 0.306-0.294 0.491-0.385 0.171-0.085 0.366-0.181 0.522-0.385l0.273-0.355-0.438-0.097c-0.135-0.03-0.407-0.141-0.67-0.249-0.577-0.235-1.182-0.472-1.505-0.42-0.425 0.066-0.582 0.531-0.733 0.979-0.128 0.378-0.273 0.808-0.534 0.882-0.047 0.013-0.095 0.019-0.144 0.019-1.188 0-2.837-3.612-2.869-5.265-0.021-1.018 0.434-2.342 0.735-3.218l0.147-0.438-0.104-0.123C77.289 13.565 70.919 9.747 64.466 9.747c-4.466 0-9.016 1.917-13.522 5.698l-0.239 0.201 0.222 0.22c0.548 0.542 0.464 4.419 0.403 7.248-0.041 1.881-0.079 3.658 0.018 4.777 0.158 1.826 0.919 4.61 1.358 6.106 0.027 0.093 2.806 9.323 4.123 10.088l0.455 0.265-0.027-0.527c-0.147-2.787 0.046-6.122 0.923-8.17-0.531 3.776-0.976 10.612 1.569 15.835 2.949 6.053 6.318 6.883 9.025 7.551 0.845 0.207 1.643 0.404 2.368 0.734 0.208 0.191 0.409 0.389 0.621 0.598 1.096 1.078 2.336 2.299 4.713 2.299 0.235 0 0.482-0.012 0.734-0.037 2.66-0.25 3.555-1.715 4.421-3.131 0.055-0.09 0.108-0.18 0.164-0.268 0.328-0.207 0.761-0.449 1.256-0.729 2.738-1.543 7.839-4.416 9.675-9.273C93.471 47.265 92.799 40.805 91.746 36.77zM81.587 59.027c-0.918 1.479-1.687 3.066-4.402 3.322-3.234 0.305-4.41-1.479-5.885-2.816-3.16-1.467-7.489-0.359-11.294-8.17-2.854-5.855-1.892-13.854-1.318-17.09-1.69 1.895-1.869 6.661-1.715 9.565-1.077-0.625-3.608-8.612-3.993-9.921-0.487-1.66-1.198-4.328-1.348-6.051-0.264-3.041 0.492-11.216-0.505-12.202 11.002-9.23 21.62-7.02 32.598 5.942-0.29 0.858-0.871 2.411-0.847 3.6 0.034 1.758 1.858 5.94 3.375 5.514 0.76-0.214 0.688-1.768 1.235-1.854 0.415-0.064 1.64 0.571 2.067 0.666-0.272 0.355-0.727 0.284-1.069 0.855-0.119 1.997 2.625 5.078 2.984 6.455 1.057 4.05 1.691 10.433 0.989 12.292C90.321 54.789 83.746 57.654 81.587 59.027z"></path><path display="none" fill="#030303" d="M91.471 36.841c-0.359-1.377-3.104-4.458-2.984-6.455 0.343-0.572 0.797-0.5 1.069-0.855-0.428-0.095-1.652-0.73-2.067-0.666-0.548 0.086-0.476 1.64-1.235 1.854-1.517 0.426-3.341-3.755-3.375-5.514-0.024-1.189 0.557-2.742 0.847-3.6C72.747 8.644 62.129 6.433 51.127 15.664c0.997 0.986 0.241 9.161 0.505 12.202 0.149 1.723 0.86 4.391 1.348 6.051 0.385 1.31 2.916 9.297 3.993 9.921-0.154-2.905 0.024-7.67 1.715-9.565-0.573 3.236-1.535 11.235 1.318 17.09 3.805 7.811 8.134 6.703 11.294 8.17 1.475 1.338 2.65 3.121 5.885 2.816 2.716-0.256 3.484-1.844 4.402-3.322 2.159-1.373 8.734-4.238 10.873-9.895C93.162 47.274 92.527 40.891 91.471 36.841z" data-fill-palette-color="accent"></path><path display="none" fill="#030303" d="M37.012 29.479c0.129-1.288 1.732-5.612 7.913-9.359-10.083 4.54-23.414 8.714-30.679 17.442C3.958 49.922 1.707 64.783 3.631 74.762c1.054 5.465 4.826 11.412 9.072 10.525-1.032-2.357-1.805-5.211-2.114-6.693-0.705-3.383-0.819-10.5-0.231-13.904 1.205-6.973 3.613-10.203 13.039-12.52 2.553-0.627 7.321 2.461 9.017 4.471 1.88 2.229 3.184 8.262 3.489 11.162 0.757 7.217 2.823 11.496 2.823 11.496s3.82-1.721 5.144-1.514c0.663 0.105 1.494 0.975 2.219 1.514 0.987-0.031 2.486-0.477 3.753-0.807-6.528-13.74-7.225-21.752-7.668-23.246C41.544 53.123 35.583 43.838 37.012 29.479z" data-fill-palette-color="accent"></path><path d="M93.56 67.025c-0.374-0.23-0.794-0.488-0.901-0.604l-0.015-0.035c-0.923-2.34-0.925-3.65-0.93-6.264-0.002-1.604-0.006-3.598-0.217-6.566 0.078-1.109 0.498-1.686 0.984-2.35 1.204-1.651 2.704-3.705-0.028-14.637-0.295-1.179-1.04-2.263-1.697-3.22-0.664-0.965-1.292-1.879-1.237-2.601 3.374-2.415 4.098-5.609 2.211-9.758-0.526-1.16-1.854-1.91-3.382-1.91-1.008 0-2.523 0.321-4.119 1.814C78.796 14.599 73.091 9 63.592 9c-0.355 0-0.718 0.008-1.078 0.025-4.857 0.22-9.315 3.898-12.897 6.855-1.544 1.274-2.879 2.375-3.966 2.96-1.355 0.731-3.72 1.663-5.807 2.486-1.441 0.568-2.802 1.104-3.757 1.54l-1.168 0.532c-4.078 1.856-10.902 4.961-14.195 7.05-7 4.442-12.655 11.984-15.924 21.237-3.139 8.883-3.665 18.426-1.442 26.18 0.883 3.08 4.64 8.836 9.717 8.836 0.225 0 0.452-0.014 0.677-0.037 0.601 1.141 1.476 1.375 2.323 1.604 0.095 0.027 0.191 0.053 0.287 0.08l0.054 0.01c1.091 0.094 2.375 0.141 3.816 0.141 8.051 0 20.67-1.541 26.624-3.832l0.047-0.025c0.258-0.158 0.441-0.475 0.544-0.939 0.207-0.934 0.065-2.482-0.488-3.617 0.82-0.049 1.536-0.172 2.287-0.303 0.36-0.063 0.733-0.129 1.128-0.188 0.833 0.482 1.169 1.578 1.524 2.738 0.315 1.025 0.641 2.09 1.355 2.779 2.076 2.006 7.637 3.816 9.604 4.346 0.919 0.246 3.125 0.434 5.134 0.434 1.907 0 4.342-0.158 5.122-0.906 0.625-0.604 0.918-1.303 0.867-2.084-0.099-1.502-1.473-3.244-4.082-5.18-1.212-1.834-1.108-5.822-1.054-7.973 0.006-0.252 0.013-0.482 0.017-0.688 0.093 0.006 0.188 0.01 0.284 0.01 1.15 0 2.373-0.465 3.021-0.896 1.883-1.256 2.158-1.869 1.838-4.109-0.417-2.926-3.729-3.283-5.507-3.477-0.343-0.037-0.748-0.08-0.967-0.133 0.688-1.635 1.007-3.232 1.199-4.508 0.47 0.125 1.049 0.365 1.568 0.58 0.329 0.137 0.642 0.268 0.91 0.363 2.084 3.57 4.929 8.42 9.177 12.365l0.049 0.045 0.063 0.018c3.825 1.172 8.489 1.932 11.88 1.932 3.31 0 5.167-0.684 5.522-2.029C98.698 70.18 95.354 68.127 93.56 67.025zM49.915 78.768c-0.205 0.055-0.416 0.109-0.629 0.168-1.145 0.305-2.328 0.621-3.188 0.648l-0.1 0.004-0.08-0.061c-0.209-0.154-0.427-0.338-0.638-0.514-0.495-0.414-1.055-0.883-1.455-0.945-0.06-0.01-0.129-0.016-0.206-0.016-1.42 0-4.742 1.492-4.776 1.506l-0.253 0.113-0.121-0.248c-0.021-0.045-2.097-4.408-2.851-11.592-0.29-2.768-1.592-8.836-3.423-11.008-1.511-1.793-5.563-4.451-8.063-4.451-0.243 0-0.467 0.025-0.668 0.074-9.563 2.35-11.686 5.689-12.826 12.291-0.583 3.375-0.465 10.467 0.229 13.797 0.274 1.313 1.023 4.189 2.096 6.637l0.141 0.322-0.343 0.072c-0.3 0.063-0.606 0.094-0.909 0.094-4.012 0-7.474-5.514-8.502-10.846-1.039-5.385-0.78-11.717 0.731-17.828 1.761-7.127 5.2-13.906 9.945-19.606 5.89-7.077 15.818-11.216 24.577-14.868 2.179-0.909 4.238-1.766 6.203-2.652l0.265 0.505c-5.994 3.633-7.646 7.832-7.776 9.143-1.176 11.808 2.733 20.278 4.402 23.895 0.369 0.801 0.635 1.377 0.75 1.764 0.079 0.266 0.16 0.693 0.281 1.34 0.588 3.137 1.964 10.48 7.372 21.863l0.148 0.313L49.915 78.768zM83.052 58.506c-0.495 0.279-0.928 0.521-1.256 0.729-0.056 0.088-0.109 0.178-0.164 0.268-0.866 1.416-1.761 2.881-4.421 3.131-0.252 0.025-0.499 0.037-0.734 0.037-2.377 0-3.617-1.221-4.713-2.299-0.212-0.209-0.413-0.406-0.621-0.598-0.726-0.33-1.523-0.527-2.368-0.734-2.707-0.668-6.076-1.498-9.025-7.551-2.545-5.224-2.101-12.059-1.569-15.835-0.877 2.048-1.07 5.383-0.923 8.17l0.027 0.527-0.455-0.265c-1.317-0.765-4.096-9.995-4.123-10.088-0.439-1.497-1.2-4.281-1.358-6.106-0.097-1.119-0.059-2.896-0.018-4.777 0.061-2.829 0.145-6.706-0.403-7.248l-0.222-0.22 0.239-0.201C55.45 11.664 60 9.747 64.466 9.747c6.453 0 12.823 3.819 19.477 11.674l0.104 0.123-0.147 0.438c-0.302 0.876-0.757 2.201-0.735 3.218 0.032 1.652 1.682 5.265 2.869 5.265 0.049 0 0.097-0.006 0.144-0.019 0.261-0.074 0.406-0.503 0.534-0.882 0.151-0.449 0.309-0.913 0.733-0.979 0.323-0.052 0.928 0.186 1.505 0.42 0.263 0.107 0.535 0.219 0.67 0.249l0.438 0.097-0.273 0.355c-0.156 0.204-0.352 0.299-0.522 0.385-0.186 0.091-0.347 0.171-0.491 0.385-0.023 1.149 0.986 2.772 1.802 4.082 0.553 0.886 1.03 1.651 1.176 2.213 1.053 4.035 1.725 10.496 0.98 12.463C90.891 54.09 85.79 56.963 83.052 58.506z" fill="#030303" data-fill-palette-color="accent"></path></g><g fill="#030303" data-fill-palette-color="accent"><path d="M61.885 34.21l-0.097-0.01c-1.138-0.098-3.087-1.722-3.075-3.21 0.022-3.114 2.886-5.742 4.911-6.613 2.145-0.923 3.813-0.767 4.874 0.426 1.219 1.373 1.309 3.733 1.169 4.911l-0.008 0.07-0.04 0.058c-0.782 1.134-2.27 1.767-3.992 2.499-1.15 0.489-2.455 1.043-3.659 1.816L61.885 34.21z" fill="#030303" data-fill-palette-color="accent"></path></g><g fill="#030303" data-fill-palette-color="accent"><path d="M76.842 59.238l-0.203-0.217c-0.184-0.197-0.284-0.369-0.367-0.506-0.039-0.068-0.073-0.127-0.107-0.168-0.126-0.061-0.372-0.133-0.634-0.209-0.976-0.283-2.608-0.758-2.884-2.135l-0.104-0.518 0.489 0.197c0.552 0.221 1.657 0.344 3.115 0.344 0.249 0 0.438-0.004 0.531-0.006h0.067c1.171 0 3.061-0.338 3.815-0.682l0.392-0.178 0.012 0.43c0.034 1.275-1.621 1.953-2.611 2.359-0.24 0.098-0.542 0.221-0.604 0.275-0.081 0.076-0.17 0.186-0.273 0.313-0.12 0.146-0.257 0.314-0.425 0.488L76.842 59.238z" fill="#030303" data-fill-palette-color="accent"></path></g><g fill="#030303" data-fill-palette-color="accent"><path d="M76.747 61.354c-1.407 0-3.019-0.395-3.322-1.506l-0.181-0.656 0.595 0.332c0.496 0.277 0.716 0.322 1.169 0.322 0.15 0 0.32-0.006 0.524-0.014 0.314-0.01 0.703-0.021 1.215-0.021 2.01 0 2.215-0.008 2.892-0.287l0.576-0.236-0.198 0.592C79.693 60.848 78.126 61.354 76.747 61.354z" fill="#030303" data-fill-palette-color="accent"></path></g><g fill="#030303" data-fill-palette-color="accent"><path d="M72.493 46.215c-0.018-0.914-0.429-3.558-1.598-3.993l-0.042-0.016-0.046-0.002c-1.884-0.071-4.414 3.193-4.854 4.316l-0.015 0.039-0.004 0.04c-0.075 0.875 0.407 2.388 1.344 3.409 0.623 0.678 1.351 1.036 2.104 1.036h0.021c1.159-0.079 1.865-1.833 2.488-3.381 0.201-0.5 0.391-0.972 0.568-1.308l0.034-0.065L72.493 46.215zM71.553 46.497c-0.322 0.05-0.699 0.1-1.039 0.1l0 0c-0.406 0-0.703-0.071-0.908-0.22-0.522-0.376-0.589-1.328-0.583-1.862l0.004-0.226 0.222-0.049c0.159-0.035 0.574-0.115 0.986-0.115 0.403 0 0.688 0.076 0.874 0.233 0.431 0.367 0.578 1.128 0.683 1.814l0.044 0.281L71.553 46.497z" fill="#030303" data-fill-palette-color="accent"></path><path d="M70.234 44.695c-0.229 0-0.463 0.03-0.639 0.059 0.022 0.571 0.153 1.024 0.344 1.161 0.07 0.052 0.228 0.112 0.574 0.112l0 0c0.211 0 0.444-0.023 0.669-0.053-0.072-0.416-0.2-0.974-0.445-1.182C70.712 44.77 70.597 44.695 70.234 44.695z" fill="#030303" data-fill-palette-color="accent"></path></g><g fill="#030303" data-fill-palette-color="accent"><path d="M85.983 43.724l-0.019-0.041-0.029-0.034c-0.573-0.646-2.601-2.756-4.65-2.756h-0.086l-0.071 0.047c-0.674 0.44-1.17 1.378-1.325 1.866-0.251 0.788-0.25 2.432 0 3.2l0.022 0.064 0.047 0.049c0.765 0.763 1.644 2.085 2.419 3.254 0.164 0.249 0.322 0.487 0.472 0.708l0.076 0.113 0.135 0.012c0.029 0.003 0.061 0.004 0.091 0.004l0 0c1.118 0 2.652-1.876 2.93-2.798C86.26 46.541 86.37 44.608 85.983 43.724zM82.741 45.1c-0.268 0.296-0.745 0.466-1.308 0.466l0 0c-0.148 0-0.301-0.013-0.451-0.037l-0.198-0.032-0.036-0.197c-0.144-0.761 0.028-1.581 0.401-1.908 0.246-0.215 0.734-0.36 1.215-0.36 0.227 0 0.437 0.032 0.624 0.093l0.184 0.061 0.011 0.193C83.209 43.811 83.254 44.536 82.741 45.1z" fill="#030303" data-fill-palette-color="accent"></path><path d="M82.364 43.603c-0.368 0-0.716 0.112-0.84 0.22-0.151 0.133-0.299 0.618-0.245 1.167 0.441 0.031 0.866-0.081 1.041-0.274 0.273-0.302 0.313-0.696 0.304-1.093C82.542 43.61 82.455 43.603 82.364 43.603z" fill="#030303" data-fill-palette-color="accent"></path></g></g></svg></g><g transform="matrix(1,0,0,1,293.5170529924271,22.31384451878324)"><svg width="170.1904296875" viewBox="2.83 -26.412241207797997 170.17999999999998 34.662241207798" height="34.665371509308514" data-palette-color="#030303"><path d="M32.08-17.5L32.08-8.91Q32.08-7.28 31.67-5.97 31.25-4.66 30.57-3.67 29.88-2.69 28.98-1.99 28.08-1.29 27.09-0.85 26.1-0.42 25.1-0.21 24.1 0 23.19 0L23.19 0 11.74 0 11.74-6.35 23.19-6.35Q24.46-6.35 25.1-7.01 25.73-7.67 25.73-8.91L25.73-8.91 25.73-17.46Q25.73-18.77 25.09-19.41 24.44-20.04 23.19-20.04L23.19-20.04 11.79-20.04Q10.5-20.04 9.84-19.4 9.18-18.75 9.18-17.5L9.18-17.5 9.18 8.25 2.83 8.25 2.83-17.5Q2.83-19.14 3.25-20.43 3.66-21.73 4.36-22.72 5.05-23.71 5.96-24.4 6.86-25.1 7.85-25.54 8.84-25.98 9.85-26.18 10.86-26.39 11.74-26.39L11.74-26.39 23.19-26.39Q24.83-26.39 26.12-25.98 27.42-25.56 28.41-24.88 29.39-24.19 30.09-23.29 30.79-22.39 31.23-21.4 31.67-20.41 31.87-19.41 32.08-18.41 32.08-17.5L32.08-17.5ZM66.21-17.5L66.21-8.91Q66.21-7.28 65.79-5.97 65.38-4.66 64.69-3.67 64.01-2.69 63.11-1.99 62.2-1.29 61.22-0.85 60.23-0.42 59.21-0.21 58.2 0 57.3 0L57.3 0 45.85 0Q44.53 0 42.97-0.46 41.4-0.93 40.07-1.99 38.74-3.05 37.85-4.75 36.96-6.45 36.96-8.91L36.96-8.91 36.96-17.5Q36.96-19.95 37.85-21.64 38.74-23.34 40.07-24.4 41.4-25.46 42.97-25.93 44.53-26.39 45.85-26.39L45.85-26.39 57.3-26.39Q59.74-26.39 61.45-25.51 63.16-24.63 64.21-23.3 65.26-21.97 65.73-20.41 66.21-18.85 66.21-17.5L66.21-17.5ZM59.86-8.91L59.86-17.46Q59.86-18.77 59.2-19.41 58.54-20.04 57.3-20.04L57.3-20.04 45.9-20.04Q44.63-20.04 43.97-19.4 43.31-18.75 43.31-17.5L43.31-17.5 43.31-8.91Q43.31-7.67 43.97-7.01 44.63-6.35 45.9-6.35L45.9-6.35 57.3-6.35Q58.59-6.35 59.23-7.01 59.86-7.67 59.86-8.91L59.86-8.91ZM107.95-26.39L115.06-26.39Q113.54-23 111.79-19.71 110.03-16.43 108.11-13.5 106.2-10.57 104.19-8.09 102.19-5.62 100.23-3.82 98.26-2.03 96.39-1.01 94.53 0 92.87 0L92.87 0Q92.18 0 91.6-0.24 91.01-0.49 90.57-0.92 90.13-1.34 89.89-1.93 89.64-2.51 89.64-3.2L89.64-3.2 89.64-15.04 77.05-0.95Q76.56-0.46 75.98-0.23 75.41 0 74.8 0L74.8 0Q74.14 0 73.57-0.24 72.99-0.49 72.55-0.92 72.11-1.34 71.86-1.93 71.6-2.51 71.6-3.2L71.6-3.2 71.6-26.39 77.95-26.39 77.95-11.35 90.6-25.49Q91.28-26.17 92.22-26.35 93.16-26.54 94.06-26.15L94.06-26.15Q94.97-25.78 95.49-24.99 96.02-24.19 96.02-23.24L96.02-23.24 96.02-8.15Q98.07-10.13 99.73-12.33 101.39-14.53 102.81-16.86 104.24-19.19 105.5-21.59 106.76-24 107.95-26.39L107.95-26.39ZM145.65-17.65L145.65-17.65Q145.65-16.33 145.18-14.81 144.72-13.28 143.68-11.98 142.64-10.67 140.97-9.79 139.3-8.91 136.91-8.91L136.91-8.91 125.46-8.91 125.46-14.94 136.91-14.94Q138.2-14.94 138.91-15.73 139.62-16.53 139.62-17.7L139.62-17.7Q139.62-18.95 138.82-19.65 138.03-20.36 136.91-20.36L136.91-20.36 125.46-20.36Q124.16-20.36 123.45-19.57 122.75-18.77 122.75-17.6L122.75-17.6 122.75-8.74Q122.75-7.47 123.54-6.76 124.33-6.05 125.51-6.05L125.51-6.05 136.91-6.05 136.91 0 125.46 0Q124.14 0 122.61-0.46 121.09-0.93 119.78-1.97 118.47-3 117.6-4.68 116.72-6.35 116.72-8.74L116.72-8.74 116.72-17.65Q116.72-18.97 117.18-20.5 117.64-22.02 118.68-23.33 119.72-24.63 121.39-25.51 123.06-26.39 125.46-26.39L125.46-26.39 136.91-26.39Q138.22-26.39 139.75-25.93 141.28-25.46 142.58-24.43 143.89-23.39 144.77-21.72 145.65-20.04 145.65-17.65ZM173.01-26.39L173.01-20.04 158.73-20.04Q157.44-20.04 156.78-19.4 156.12-18.75 156.12-17.5L156.12-17.5 156.12 0 149.77 0 149.77-17.5Q149.77-19.14 150.19-20.43 150.6-21.73 151.3-22.72 151.99-23.71 152.9-24.4 153.8-25.1 154.79-25.54 155.78-25.98 156.79-26.18 157.8-26.39 158.68-26.39L158.68-26.39 173.01-26.39Z" opacity="1" transform="matrix(1,0,0,1,0,0)" fill="#030303" class="undefined-yy-1"></path></svg></g></svg></g></svg></g></svg></g></svg></g><g></g></svg></g><defs></defs></svg><rect width="395.52" height="67.6331361448992" fill="none" stroke="none" visibility="hidden"></rect></g></svg></g></svg>